<?xml version="1.0" encoding="utf-8"?>
<!-- Generator: Adobe Illustrator 21.1.0, SVG Export Plug-In . SVG Version: 6.00 Build 0)  -->
<svg version="1.1" id="Calque_1" xmlns="http://www.w3.org/2000/svg" xmlns:xlink="http://www.w3.org/1999/xlink" x="0px" y="0px"
	 viewBox="0 0 240 320" style="enable-background:new 0 0 240 320;" xml:space="preserve">
<style type="text/css">
	.st0{fill:none;stroke:#FFFFFF;stroke-width:3;stroke-miterlimit:10;}
	.st1{fill:#FFFFFF;stroke:#FFFFFF;stroke-width:3;stroke-miterlimit:10;}
</style>
<path class="st0" d="M185,38.8c-1-11.9-9.8-19.6-20-19c-10.1,0.6-17.2,9.5-17.6,21.2c-0.4,11.1-0.9,22.4-2.4,33.4
	c-1.9,13.3-4.8,26.5-7.3,39.8c-1,0-1.9,0.1-2.9,0.1c-2.3-5.3-4.6-10.6-7.1-15.8c-10.9-22.8-21.4-45.8-33-68.2
	c-4.9-9.3-18.6-12.6-26.8-8.2c-9.1,4.8-11.6,14.4-7.1,25.7c8.5,21.3,17,42.6,24.7,62c-6.5,8.7-11.7,15.2-16.4,22.1
	c-2.8,4-4.2,9.5-7.8,12.4c-13,10.4-12.7,23.4-9.5,37.6c2.2,9.6,3.7,19.4,6.2,28.9c3,11.6,7,22.9,10,34.5c3.3,12.6,6.7,25.2,8.6,38
	c1.4,9.3,0.3,18.9,0.3,28.2c36,0,70.7,0,104.4,0c2-33.7,4.8-66.4,5.5-99.2c0.9-42.7,0.4-85.5,0.2-128.2
	C186.9,69,186.2,53.9,185,38.8z M64.3,155.9c9.5,8.2,18.6,15.1,26.4,23.3c2.4,2.5,1.1,8.6,1.4,13.1c-3.7-1.4-8.1-1.9-11.1-4.3
	c-5.1-4-9.2-9.4-14-13.8C59.9,167.7,59.8,167.9,64.3,155.9z M73.5,145.3c17.1,3.5,41.7,33.6,38.7,46.8c-2.2-0.9-4.6-1.2-4.8-2.1
	C102.8,170.2,84.7,160.2,73.5,145.3z M175.2,214.1c-0.5,28.4-3.5,56.8-5.4,86.1c-26.8,0-53.4,0-80.4-0.3c-0.3-2.4-1.1-4.7-0.8-6.8
	c2.2-19.3-3.6-36.5-11.1-54.1c-6.4-15.1-9.3-31.7-13.8-47.7c1.2-0.6,2.4-1.1,3.6-1.7c1.9,2.3,3.8,4.6,5.7,6.9
	c6.6,8.2,14.7,10.5,24.5,7.1c10-3.5,11.5-2.6,10.5,8.2c-2.3,24.8,10.8,40.2,30.5,51.7c2.8,1.6,7,0.8,10.5,1.1
	c-1.7-3.4-2.6-7.5-5.1-10.2c-6.2-6.8-13.7-12.4-19.5-19.4c-5.7-6.8-8.8-15.6-4.7-24c13.7-28.5-2.1-46.6-21.4-63.7
	c-3-2.6-6.7-4.6-8.9-7.7c-2.1-3-2.7-7-4-10.6c3.9,0.5,8.3-0.1,11.5,1.7c6.6,3.7,12.8,8.2,18.6,13c11.9,9.8,23.3,20.3,35.4,29.8
	c2.9,2.2,7.9,1.7,11.9,2.5c-1.3-3.6-1.4-8.5-3.9-10.6c-16.8-14.3-34.3-27.8-51.1-42c-4-3.4-7.7-8-9.7-12.8
	C89.5,90,81.6,69.1,73.5,48.3c-0.9-2.5-2.2-5-2.3-7.5c-0.1-2.3,0.5-6,2-6.8c2.2-1.2,6.6-1.4,8,0c4.1,4,8.2,8.6,10.5,13.8
	c11.1,23.1,21.5,46.6,32.3,69.8c2.2,4.9,3.6,11.5,11.2,10.2c7.4-1.3,13.4-3.7,14.4-13.2c2.5-23.5,6-46.9,9.2-70.3
	c0.4-2.9,0.5-6.1,1.9-8.5c1.1-1.9,3.9-3.9,5.9-3.9c2.1,0,5.1,2.1,5.9,4c1.5,3.5,2,7.6,2.1,11.5c0.4,12.8,0.5,25.7,0.5,38.5
	C175.3,128.6,176.1,171.4,175.2,214.1z"/>
<path class="st1" d="M174.6,47.4c-0.1-3.9-0.6-8-2.1-11.5c-0.8-1.9-3.8-4-5.9-4c-2,0-4.8,2-5.9,3.9c-1.4,2.4-1.5,5.6-1.9,8.5
	c-3.2,23.4-6.7,46.8-9.2,70.3c-1,9.5-7,11.9-14.4,13.2c-7.6,1.3-9-5.3-11.2-10.2c-10.8-23.2-21.2-46.7-32.3-69.8
	C89.4,42.6,85.3,38,81.2,34c-1.4-1.4-5.8-1.2-8,0c-1.5,0.8-2.1,4.5-2,6.8c0.1,2.5,1.4,5,2.3,7.5c8.1,20.8,16,41.7,24.6,62.3
	c2,4.8,5.7,9.4,9.7,12.8c16.8,14.2,34.3,27.7,51.1,42c2.5,2.1,2.6,7,3.9,10.6c-4-0.8-9-0.3-11.9-2.5c-12.1-9.5-23.5-20-35.4-29.8
	c-5.8-4.8-12-9.3-18.6-13c-3.2-1.8-7.6-1.2-11.5-1.7c1.3,3.6,1.9,7.6,4,10.6c2.2,3.1,5.9,5.1,8.9,7.7c19.3,17.1,35.1,35.2,21.4,63.7
	c-4.1,8.4-1,17.2,4.7,24c5.8,7,13.3,12.6,19.5,19.4c2.5,2.7,3.4,6.8,5.1,10.2c-3.5-0.3-7.7,0.5-10.5-1.1
	c-19.7-11.5-32.8-26.9-30.5-51.7c1-10.8-0.5-11.7-10.5-8.2c-9.8,3.4-17.9,1.1-24.5-7.1c-1.9-2.3-3.8-4.6-5.7-6.9
	c-1.2,0.6-2.4,1.1-3.6,1.7c4.5,16,7.4,32.6,13.8,47.7c7.5,17.6,13.3,34.8,11.1,54.1c-0.3,2.1,0.5,4.4,0.8,6.8
	c27,0.3,53.6,0.3,80.4,0.3c1.9-29.3,4.9-57.7,5.4-86.1c0.9-42.7,0.1-85.5-0.1-128.2C175.1,73.1,175,60.2,174.6,47.4z"/>
<path class="st1" d="M107.4,190c0.2,0.9,2.6,1.2,4.8,2.1c3-13.2-21.6-43.3-38.7-46.8C84.7,160.2,102.8,170.2,107.4,190z"/>
<path class="st1" d="M67,174.2c4.8,4.4,8.9,9.8,14,13.8c3,2.4,7.4,2.9,11.1,4.3c-0.3-4.5,1-10.6-1.4-13.1
	c-7.8-8.2-16.9-15.1-26.4-23.3C59.8,167.9,59.9,167.7,67,174.2z"/>
<path class="st0" d="M240,0 M240,320 M186.8,212.3c-0.7,32.8-3.5,65.5-5.5,99.2c-33.7,0-68.4,0-104.4,0c0-9.3,1.1-18.9-0.3-28.2
	c-1.9-12.8-5.3-25.4-8.6-38c-3-11.6-7-22.9-10-34.5c-2.5-9.5-4-19.3-6.2-28.9c-3.2-14.2-3.5-27.2,9.5-37.6c3.6-2.9,5-8.4,7.8-12.4
	c4.7-6.9,9.9-13.4,16.4-22.1c-7.7-19.4-16.2-40.7-24.7-62c-4.5-11.3-2-20.9,7.1-25.7c8.2-4.4,21.9-1.1,26.8,8.2
	c11.6,22.4,22.1,45.4,33,68.2c2.5,5.2,4.8,10.5,7.1,15.8c1,0,1.9-0.1,2.9-0.1c2.5-13.3,5.4-26.5,7.3-39.8c1.5-11,2-22.3,2.4-33.4
	c0.4-11.7,7.5-20.6,17.6-21.2c10.2-0.6,19,7.1,20,19c1.2,15.1,1.9,30.2,2,45.3C187.2,126.8,187.7,169.6,186.8,212.3z"/>
</svg>
